<?xml version="1.0" encoding="iso-8859-1"?>
<!-- Generator: Adobe Illustrator 18.1.1, SVG Export Plug-In . SVG Version: 6.00 Build 0)  -->
<svg xmlns="http://www.w3.org/2000/svg" xmlns:xlink="http://www.w3.org/1999/xlink" version="1.1" id="Capa_1" x="0px" y="0px" viewBox="0 0 612 612" style="enable-background:new 0 0 612 612;" xml:space="preserve" width="512px" height="512px">
<g>
	<g>
		<path d="M567.273,488.286l-79.891-100.78h28.141c9.156,0,12.57-4.403,13.791-7.027c1.221-2.625,2.387-8.073-3.514-15.076    l-91.101-108.12h38.224c9.237,0,12.53-4.381,13.67-6.993c1.141-2.612,2.117-8.004-4.163-14.779l-87.974-94.937h21.299    c9.236,0,12.53-4.381,13.67-6.992c1.141-2.612,2.117-8.005-4.163-14.781L321.556,6.891C317.439,2.448,311.914,0,305.999,0    s-11.439,2.448-15.557,6.891L186.736,118.803c-6.278,6.776-5.303,12.17-4.161,14.781c1.14,2.61,4.433,6.992,13.67,6.992h21.299    l-87.974,94.937c-6.279,6.775-5.304,12.168-4.163,14.779c1.14,2.612,4.432,6.993,13.67,6.993h38.224l-91.103,108.12    c-5.899,7.003-4.733,12.451-3.512,15.076c1.221,2.624,4.635,7.027,13.791,7.027h28.141l-79.891,100.78    c-5.656,7.134-4.368,12.614-3.096,15.245c1.273,2.632,4.765,7.045,13.869,7.045h501.001c9.104,0,12.598-4.414,13.869-7.045    C571.641,500.9,572.929,495.42,567.273,488.286z" fill="#FFFFFF"/>
		<path d="M348.979,534.947h-85.96c-9.282,0-16.834,7.552-16.834,16.834v43.385c0,9.282,7.552,16.834,16.834,16.834h85.96    c9.282,0,16.834-7.552,16.834-16.834v-43.385C365.813,542.499,358.261,534.947,348.979,534.947z" fill="#FFFFFF"/>
	</g>
</g>
<g>
</g>
<g>
</g>
<g>
</g>
<g>
</g>
<g>
</g>
<g>
</g>
<g>
</g>
<g>
</g>
<g>
</g>
<g>
</g>
<g>
</g>
<g>
</g>
<g>
</g>
<g>
</g>
<g>
</g>
</svg>
